PathFileType	4	(X/Y/Z)	E:\Qualisys_Data\Carbon_Farble_Plate\Data\Amateur_Runner\S1\T3\S1T3V12_c3d.trc
DataRate	CameraRate	NumFrames	NumMarkers	Units	OrigDataRate	OrigDataStartFrame	OrigNumFrames
200.000000	200.000000	5	39	mm	200.000000	120	322
Frame#	Time	LSHO			RSHO			LICST			RICST			LASIS			LHEEL			RASIS			LTROC			RTROC			SACR			LTH1			LSK4			LTH2			LTH3			RHM5			LSK2			LTH4			RTH1			LTOE			RTH2			RTH3			RTH4			LLEP			RLEP			LSK1			LSK3			RSK1			LHM5			RSK2			LFT1			RSK3			RSK4			LLME			RLME			RTOE			RHEEL			RFT1			RFT2			LFT2			
		X1	Y1	Z1	X2	Y2	Z2	X3	Y3	Z3	X4	Y4	Z4	X5	Y5	Z5	X6	Y6	Z6	X7	Y7	Z7	X8	Y8	Z8	X9	Y9	Z9	X10	Y10	Z10	X11	Y11	Z11	X12	Y12	Z12	X13	Y13	Z13	X14	Y14	Z14	X15	Y15	Z15	X16	Y16	Z16	X17	Y17	Z17	X18	Y18	Z18	X19	Y19	Z19	X20	Y20	Z20	X21	Y21	Z21	X22	Y22	Z22	X23	Y23	Z23	X24	Y24	Z24	X25	Y25	Z25	X26	Y26	Z26	X27	Y27	Z27	X28	Y28	Z28	X29	Y29	Z29	X30	Y30	Z30	X31	Y31	Z31	X32	Y32	Z32	X33	Y33	Z33	X34	Y34	Z34	X35	Y35	Z35	X36	Y36	Z36	X37	Y37	Z37	X38	Y38	Z38	X39	Y39	Z39	

121	0.6	-547.3240966796875	1455.660888671875	-534.9235229492188	-578.7828369140625	1475.770629882812	-204.5233306884766	-625.02197265625	1008.233032226562	-487.3915100097656	-623.8273315429688	1030.30224609375	-185.5022430419922	-582.1617431640625	968.6268920898438	-460.8058166503906	-957.0501098632812	118.6875	-364.8629150390625	-586.8790283203125	981.2067260742188	-194.6034698486328	-699.5955810546875	894.1165771484375	-499.6505126953125	-688.3894653320312	890.617431640625	-160.3546600341797	-741.0316162109375	1041.99169921875	-331.7782897949219	-575.2021484375	734.1535034179688	-474.8977966308594	-859.5272827148438	263.8827514648438	-403.1748657226562	-656.629638671875	730.0060424804688	-501.6481018066406	-579.296142578125	631.2291259765625	-457.722900390625	-719.1314697265625	169.9400787353516	-177.3617553710938	-800.06884765625	338.6446533203125	-444.4739685058594	-663.8025512695312	632.7360229492188	-475.3724975585938	-519.4148559570312	814.5191650390625	-178.7616119384766	-711.6756591796875	65.8133773803711	-374.3496398925781	-586.6238403320312	776.2386474609375	-152.5324401855469	-469.563720703125	725.5205688476562	-179.6740112304688	-540.8626098632812	687.4370727539062	-163.5411529541016	-641.4562377929688	481.56396484375	-434.7229614257812	-447.8427429199219	550.7514038085938	-199.1534118652344	-734.3925170898438	289.0638732910156	-427.1394653320312	-799.5127563476562	212.2705841064453	-418.6952819824219	-577.9840087890625	426.0277709960938	-184.3838806152344	-784.9542846679688	63.40640640258789	-437.0831298828125	-628.3649291992188	487.822998046875	-200.3494262695312	-953.3889770507812	87.5283432006836	-337.0829772949219	-653.0337524414062	360.2516174316406	-195.8922119140625	-701.4368286132812	420.6575622558594	-220.7967987060547	-891.4849853515625	137.6774139404297	-413.1219787597656	-773.2020874023438	305.1474304199219	-197.3451538085938	-669.8829956054688	138.1911163330078	-246.0682067871094	-850.3296508789062	316.1248779296875	-244.6529693603516	-859.353271484375	288.2412109375	-273.4476928710938	-864.5955200195312	297.6978454589844	-222.7418212890625	-960.0018310546876	86.76811981201172	-387.9895324707031
122	0.605	-529.7420043945312	1460.034423828125	-533.1880493164062	-564.8739013671875	1479.289184570312	-203.5171661376953	-608.6273803710938	1010.289245605469	-487.878662109375	-606.1751098632812	1034.582885742188	-185.9742584228516	-565.5213012695312	970.8822631835938	-461.1130981445312	-954.3728637695312	124.1407318115234	-365.2680053710938	-569.7064208984375	985.1702880859376	-195.0128479003906	-683.4970092773438	897.2921752929688	-498.7044372558594	-670.6381225585938	895.4238891601562	-158.9839019775391	-724.048583984375	1045.465698242188	-331.8715209960938	-562.5380859375	735.0921020507812	-472.6231994628906	-855.3036499023438	268.2636413574219	-402.6355285644531	-644.00244140625	732.6326293945312	-500.4551391601562	-569.0579223632812	632.3699951171875	-455.4086303710938	-682.8560791015625	165.4330596923828	-177.5339202880859	-795.6882934570312	342.7015380859375	-443.5771179199219	-653.7235107421875	636.0346069335938	-474.0022583007812	-501.4491882324219	821.0296630859375	-178.8857879638672	-709.9041748046875	65.80258178710938	-374.6679077148438	-567.5744018554688	781.7315063476562	-152.8073120117188	-450.5562744140625	732.431884765625	-179.9924621582031	-521.0639038085938	693.298095703125	-163.4235076904297	-635.8596801757812	484.2637329101562	-433.43701171875	-427.3894958496094	557.5119018554688	-198.8484649658203	-730.4191284179688	292.9053955078125	-426.6811828613281	-795.5066528320312	216.5412750244141	-419.0769348144531	-552.9800415039062	427.0429382324219	-184.5086669921875	-784.0263671875	64.30731201171875	-436.9749145507812	-605.770263671875	487.060546875	-200.7033386230469	-951.27978515625	92.75914764404295	-336.9015197753906	-624.7960205078125	357.8423156738281	-195.7596588134766	-676.015380859375	416.5242309570312	-221.1485443115234	-888.3307495117188	142.5041656494141	-412.8261108398438	-742.4705200195312	298.2071838378906	-196.9143218994141	-631.8174438476562	136.4772796630859	-245.3980865478516	-820.2427368164062	305.2008666992188	-244.9937133789062	-828.1995849609375	277.1915283203125	-273.7997436523438	-833.8878784179688	286.3677673339844	-223.1539154052734	-957.3777465820312	92.26309967041016	-388.4111328125
123	0.61	-512.6528930664062	1464.546875	-531.7301635742188	-550.9317016601562	1482.944580078125	-202.5957794189453	-591.4694213867188	1013.225158691406	-487.983154296875	-589.0465087890625	1038.902709960938	-186.2250671386719	-548.3381958007812	973.2328491210938	-462.1734008789062	-950.58544921875	130.2468414306641	-365.6776733398438	-552.5120239257812	989.5149536132812	-195.6495666503906	-667.6051635742188	900.2476196289062	-497.7823181152344	-652.6917114257812	899.8863525390625	-157.6985168457031	-706.9444580078125	1048.887329101562	-331.7471008300781	-549.8338012695312	736.2868041992188	-470.7627258300781	-851.1260986328125	273.2436828613281	-401.9471130371094	-630.9122314453125	735.3751831054688	-499.100341796875	-558.9476928710938	633.5807495117188	-453.0918884277344	-645.8153076171875	161.3917388916016	-177.39013671875	-790.6261596679688	347.1759338378906	-443.0115966796875	-643.0206298828125	638.6759033203125	-472.1696166992188	-483.5783996582031	826.8211669921875	-179.6103820800781	-709.8235473632812	64.86885070800781	-373.452392578125	-548.78466796875	787.1795654296875	-152.6423034667969	-431.3327331542969	739.1334228515625	-180.5747528076172	-501.2009582519531	699.6823120117188	-162.8227081298828	-629.41015625	487.4191589355469	-432.1369323730469	-407.1494750976562	563.676513671875	-198.7258605957031	-726.1177978515625	297.1170959472656	-426.30126953125	-792.2193603515625	221.0221710205078	-418.6395263671875	-528.0426025390625	428.1081237792969	-184.3238525390625	-782.8363037109375	64.73193359375	-436.6231994628906	-583.5032958984375	485.7451171875	-201.0451202392578	-949.0115966796876	98.92469787597656	-337.0835266113281	-596.8304443359375	355.8544616699219	-195.6005554199219	-650.3441772460938	411.960693359375	-221.2164001464844	-884.4515380859375	147.4418029785156	-412.6917419433594	-712.0719604492188	290.7235107421875	-197.4958801269531	-593.658203125	134.1060485839844	-245.8902282714844	-789.2479858398438	294.5112609863281	-244.9585418701172	-796.2679443359375	265.71533203125	-274.0989990234375	-802.3766479492188	274.8835144042969	-222.9318695068359	-954.627685546875	98.06385040283205	-388.5543823242188
124	0.615	-495.2950439453125	1469.073486328125	-530.6126098632812	-537.1531372070312	1486.550903320312	-201.8722839355469	-573.7763671875	1016.428039550781	-487.9962768554688	-571.2723999023438	1043.663452148438	-186.3582000732422	-531.387939453125	976.347900390625	-460.746337890625	-947.0443725585938	136.8191223144531	-366.3976745605469	-535.1647338867188	993.9296875	-195.4297790527344	-651.0892333984375	903.4325561523438	-497.00537109375	-634.3311767578125	904.784423828125	-156.4632873535156	-689.429443359375	1052.593017578125	-331.5078735351562	-537.4275512695312	737.6634521484375	-468.5032348632812	-846.065185546875	278.5372009277344	-401.72900390625	-617.8667602539062	738.49169921875	-497.8429260253906	-548.46240234375	635.6000366210938	-450.9154663085938	-609.0133666992188	157.5742645263672	-176.9933013916016	-785.2061767578125	352.2252197265625	-442.0782165527344	-631.3848876953125	642.4000854492188	-471.169677734375	-465.3326110839844	832.8536376953125	-179.8575592041016	-707.2396240234375	65.12248992919922	-375.0514831542969	-529.92578125	792.9906616210938	-151.6774291992188	-412.3106689453125	745.536376953125	-180.9996337890625	-481.6859741210938	705.9290771484375	-162.1869354248047	-621.9561157226562	491.0520935058594	-430.9457397460938	-387.5303649902344	569.7335205078125	-198.7912902832031	-720.6476440429688	301.6181640625	-425.9280395507812	-787.6751708984375	226.1726989746094	-418.4873046875	-502.9015808105469	428.7286682128906	-184.3238677978516	-781.1903076171875	65.57630920410156	-436.6325378417969	-561.0136108398438	483.5685729980469	-201.3807373046875	-945.5714111328124	105.6535415649414	-337.9871520996094	-568.7185668945312	353.7094116210938	-195.6413879394531	-624.9222412109375	407.2863159179688	-221.5825653076172	-880.2410278320312	152.2294311523438	-413.1798400878906	-681.341796875	283.9857482910156	-197.6040802001953	-555.7518310546875	132.7822265625	-245.1951446533203	-758.6268310546875	283.8820495605469	-245.5857849121094	-764.3518676757812	254.5233612060547	-274.8807373046875	-770.8536987304688	263.4748840332031	-223.4156341552734	-951.94140625	104.550422668457	-389.3816528320312
125	0.62	-477.8671875	1473.940063476562	-529.1095581054688	-523.0319213867188	1490.4912109375	-201.2188873291016	-556.0617065429688	1019.045104980469	-487.8613891601562	-554.2698364257812	1048.280029296875	-186.8423919677734	-513.64599609375	978.85888671875	-460.5669555664062	-942.9068603515624	143.2444000244141	-366.9473266601562	-517.9242553710938	998.6463012695312	-195.5117034912109	-634.7329711914062	906.8081665039062	-496.3345336914062	-616.7479248046875	909.7366333007812	-155.6626892089844	-672.25634765625	1056.214599609375	-331.3604431152344	-524.3468017578125	739.3998413085938	-466.5151672363281	-840.36865234375	283.9241943359375	-401.7417907714844	-604.9302368164062	742.3568115234375	-496.9894104003906	-537.3709106445312	638.0474243164062	-448.7239379882812	-572.1653442382812	153.3555755615234	-177.1498565673828	-779.032958984375	357.6553955078125	-442.2132873535156	-620.6950073242188	646.24365234375	-469.5418090820312	-447.5604248046875	838.9577026367188	-181.2123718261719	-706.9711303710938	64.2398681640625	-374.3873596191406	-510.91455078125	798.6901245117188	-151.3476409912109	-393.4652404785156	752.0244140625	-181.769775390625	-462.0899963378906	711.6210327148438	-161.9179382324219	-614.2020874023438	494.8001708984375	-429.8308410644531	-368.3523864746094	575.5397338867188	-198.4322967529297	-715.157958984375	306.0925598144531	-425.5318603515625	-782.7444458007812	231.1018371582031	-418.5738220214844	-478.35546875	428.8771362304688	-183.9442596435547	-779.8960571289062	66.69511413574219	-436.8047485351562	-538.4537963867188	481.5629577636719	-201.3874053955078	-942.1890869140624	112.5919036865234	-338.5480346679688	-541.00439453125	350.9393310546875	-196.0460662841797	-599.0759887695312	403.0405578613281	-221.3985137939453	-876.2433471679688	158.5212860107422	-413.5585021972656	-649.8074951171875	275.8741149902344	-197.7581634521484	-517.2710571289062	131.2619476318359	-245.5105133056641	-727.0592041015625	273.0198059082031	-245.6465759277344	-731.0574951171875	243.1062927246094	-274.7137451171875	-738.0537719726562	251.1075286865234	-224.015380859375	-948.584716796875	111.2220687866211	-389.4506225585938
